<svg id="visual" viewBox="0 0 900 600" width="900" height="600" xmlns="http://www.w3.org/2000/svg" xmlns:xlink="http://www.w3.org/1999/xlink" version="1.1"><rect x="0" y="0" width="900" height="600" fill="#001220"></rect><path d="M0 425L21.5 421.8C43 418.7 86 412.3 128.8 415C171.7 417.7 214.3 429.3 257.2 429.5C300 429.7 343 418.3 385.8 414.7C428.7 411 471.3 415 514.2 408.2C557 401.3 600 383.7 642.8 372C685.7 360.3 728.3 354.7 771.2 352.8C814 351 857 353 878.5 354L900 355L900 601L878.5 601C857 601 814 601 771.2 601C728.3 601 685.7 601 642.8 601C600 601 557 601 514.2 601C471.3 601 428.7 601 385.8 601C343 601 300 601 257.2 601C214.3 601 171.7 601 128.8 601C86 601 43 601 21.5 601L0 601Z" fill="#fa7268"></path><path d="M0 421L21.5 422C43 423 86 425 128.8 429.2C171.7 433.3 214.3 439.7 257.2 441.3C300 443 343 440 385.8 434.3C428.7 428.7 471.3 420.3 514.2 420.8C557 421.3 600 430.7 642.8 433.2C685.7 435.7 728.3 431.3 771.2 425C814 418.7 857 410.3 878.5 406.2L900 402L900 601L878.5 601C857 601 814 601 771.2 601C728.3 601 685.7 601 642.8 601C600 601 557 601 514.2 601C471.3 601 428.7 601 385.8 601C343 601 300 601 257.2 601C214.3 601 171.7 601 128.8 601C86 601 43 601 21.5 601L0 601Z" fill="#ef5f67"></path><path d="M0 475L21.5 472C43 469 86 463 128.8 458.5C171.7 454 214.3 451 257.2 453.8C300 456.7 343 465.3 385.8 468C428.7 470.7 471.3 467.3 514.2 466.5C557 465.7 600 467.3 642.8 463.2C685.7 459 728.3 449 771.2 453.3C814 457.7 857 476.3 878.5 485.7L900 495L900 601L878.5 601C857 601 814 601 771.2 601C728.3 601 685.7 601 642.8 601C600 601 557 601 514.2 601C471.3 601 428.7 601 385.8 601C343 601 300 601 257.2 601C214.3 601 171.7 601 128.8 601C86 601 43 601 21.5 601L0 601Z" fill="#e34c67"></path><path d="M0 525L21.5 525.7C43 526.3 86 527.7 128.8 524.2C171.7 520.7 214.3 512.3 257.2 511.8C300 511.3 343 518.7 385.8 522.7C428.7 526.7 471.3 527.3 514.2 521.5C557 515.7 600 503.3 642.8 503C685.7 502.7 728.3 514.3 771.2 520.8C814 527.3 857 528.7 878.5 529.3L900 530L900 601L878.5 601C857 601 814 601 771.2 601C728.3 601 685.7 601 642.8 601C600 601 557 601 514.2 601C471.3 601 428.7 601 385.8 601C343 601 300 601 257.2 601C214.3 601 171.7 601 128.8 601C86 601 43 601 21.5 601L0 601Z" fill="#d53867"></path><path d="M0 540L21.5 543.8C43 547.7 86 555.3 128.8 555.7C171.7 556 214.3 549 257.2 547.5C300 546 343 550 385.8 552.5C428.7 555 471.3 556 514.2 552.7C557 549.3 600 541.7 642.8 542.8C685.7 544 728.3 554 771.2 557C814 560 857 556 878.5 554L900 552L900 601L878.5 601C857 601 814 601 771.2 601C728.3 601 685.7 601 642.8 601C600 601 557 601 514.2 601C471.3 601 428.7 601 385.8 601C343 601 300 601 257.2 601C214.3 601 171.7 601 128.8 601C86 601 43 601 21.5 601L0 601Z" fill="#c62368"></path></svg>