<svg id="visual" viewBox="0 0 900 600" width="900" height="600" xmlns="http://www.w3.org/2000/svg" xmlns:xlink="http://www.w3.org/1999/xlink" version="1.1"><rect x="0" y="0" width="900" height="600" fill="#FFFFFF"></rect><path d="M0 346L21.5 356.3C43 366.7 86 387.3 128.8 401.7C171.7 416 214.3 424 257.2 409.7C300 395.3 343 358.7 385.8 353.8C428.7 349 471.3 376 514.2 378C557 380 600 357 642.8 356.8C685.7 356.7 728.3 379.3 771.2 396.5C814 413.7 857 425.3 878.5 431.2L900 437L900 601L878.5 601C857 601 814 601 771.2 601C728.3 601 685.7 601 642.8 601C600 601 557 601 514.2 601C471.3 601 428.7 601 385.8 601C343 601 300 601 257.2 601C214.3 601 171.7 601 128.8 601C86 601 43 601 21.5 601L0 601Z" fill="#fcaf3c"></path><path d="M0 427L21.5 433.8C43 440.7 86 454.3 128.8 454.5C171.7 454.7 214.3 441.3 257.2 439.7C300 438 343 448 385.8 439.2C428.7 430.3 471.3 402.7 514.2 398.2C557 393.7 600 412.3 642.8 425.8C685.7 439.3 728.3 447.7 771.2 453.2C814 458.7 857 461.3 878.5 462.7L900 464L900 601L878.5 601C857 601 814 601 771.2 601C728.3 601 685.7 601 642.8 601C600 601 557 601 514.2 601C471.3 601 428.7 601 385.8 601C343 601 300 601 257.2 601C214.3 601 171.7 601 128.8 601C86 601 43 601 21.5 601L0 601Z" fill="#fba432"></path><path d="M0 442L21.5 437.7C43 433.3 86 424.7 128.8 436.2C171.7 447.7 214.3 479.3 257.2 483.7C300 488 343 465 385.8 462.3C428.7 459.7 471.3 477.3 514.2 483.2C557 489 600 483 642.8 485.2C685.7 487.3 728.3 497.7 771.2 486.3C814 475 857 442 878.5 425.5L900 409L900 601L878.5 601C857 601 814 601 771.2 601C728.3 601 685.7 601 642.8 601C600 601 557 601 514.2 601C471.3 601 428.7 601 385.8 601C343 601 300 601 257.2 601C214.3 601 171.7 601 128.8 601C86 601 43 601 21.5 601L0 601Z" fill="#fa9a29"></path><path d="M0 444L21.5 446.2C43 448.3 86 452.7 128.8 460.2C171.7 467.7 214.3 478.3 257.2 480.7C300 483 343 477 385.8 476.2C428.7 475.3 471.3 479.7 514.2 479C557 478.3 600 472.7 642.8 481.2C685.7 489.7 728.3 512.3 771.2 519C814 525.7 857 516.3 878.5 511.7L900 507L900 601L878.5 601C857 601 814 601 771.2 601C728.3 601 685.7 601 642.8 601C600 601 557 601 514.2 601C471.3 601 428.7 601 385.8 601C343 601 300 601 257.2 601C214.3 601 171.7 601 128.8 601C86 601 43 601 21.5 601L0 601Z" fill="#f98e20"></path><path d="M0 499L21.5 507.5C43 516 86 533 128.8 537.5C171.7 542 214.3 534 257.2 531.7C300 529.3 343 532.7 385.8 534.2C428.7 535.7 471.3 535.3 514.2 534.3C557 533.3 600 531.7 642.8 523.3C685.7 515 728.3 500 771.2 498.3C814 496.7 857 508.3 878.5 514.2L900 520L900 601L878.5 601C857 601 814 601 771.2 601C728.3 601 685.7 601 642.8 601C600 601 557 601 514.2 601C471.3 601 428.7 601 385.8 601C343 601 300 601 257.2 601C214.3 601 171.7 601 128.8 601C86 601 43 601 21.5 601L0 601Z" fill="#f88317"></path><path d="M0 557L21.5 559C43 561 86 565 128.8 568.8C171.7 572.7 214.3 576.3 257.2 578.5C300 580.7 343 581.3 385.8 572.8C428.7 564.3 471.3 546.7 514.2 546.8C557 547 600 565 642.8 567.2C685.7 569.3 728.3 555.7 771.2 546.2C814 536.7 857 531.3 878.5 528.7L900 526L900 601L878.5 601C857 601 814 601 771.2 601C728.3 601 685.7 601 642.8 601C600 601 557 601 514.2 601C471.3 601 428.7 601 385.8 601C343 601 300 601 257.2 601C214.3 601 171.7 601 128.8 601C86 601 43 601 21.5 601L0 601Z" fill="#f7770f"></path></svg>