<svg xmlns="http://www.w3.org/2000/svg"  viewBox="0 0 48 48" width="480px" height="480px"><path fill="#d6e5e5" d="M10.19,43.993c5,0,3.146,0.164,7.645,0.16c3.752-0.004,5.49-0.348,8.18-0.195	c2.228,0.127,3.598,0.077,5.83,0.123c3.752,0.078,9.32,1.059,11.482-1.738c1.367-1.768,1.236-4.792,1.344-6.964	c0.108-2.172-0.378-5.738-0.222-7.907c0.439-6.082-0.475-6.14-0.246-11.774c0.083-2.056,0.275-8.6-1.013-10.205	c-1.24-1.545-3.227-2.06-6.598-2.017c-4.447,0.057-7.87,0.134-12.317,0.111c-1.699-0.009-3.553-0.098-5.253-0.106	c-1.371-0.007-4.528,0.257-5.899,0.279c-1.275,0.02-6.118,0.435-7.447,1.95c-2.814,3.208-2.143,10.432-2.16,10.968	c-0.161,5.172,0.35,12.527,0.338,15.177c-0.016,3.513-0.001,5.052,0.335,7.138C4.674,41.996,6.281,44.186,10.19,43.993"/><path fill="#373837" d="M25.274,37.344c-0.011-1.383,0.295-2.856,0.062-4.05c0.487-0.013,0.974-0.027,1.462-0.04	c-0.018-0.579,0.083-1.683,0.276-1.691c0.47-0.02,0.898-0.096,1.704-0.044c0.094-0.559-0.039-1.451,0.055-2.01	c0.685,0.139,1.698,0.204,1.66-0.017c-0.112-0.636,0.023-1.949,0.001-2.595c-0.041-1.244-0.041-1.701-0.124-3.041	c0.25-0.342,1.3,0.129,1.891-0.019c0.127-0.032-0.237,1.835,0,2.186s1.366,0.31,1.711,0.063c0.3-1.412,0.244-2.58,0.222-4.023	c-1.521,0.063-2.893-0.04-4.099-0.073c-0.084-0.926-0.109-1.555-0.194-2.481c1.91,0.025,2.527-0.207,3.788-0.115	c0.711,0.052,2.816-0.017,2.851-0.313c0.077-0.658,0.087-1.06,0.024-1.725c-1.665-0.142-3.261-0.198-4.926-0.048	c0-0.643,0.027-1.45-0.01-2.059c2.54-0.147,5.089-0.134,7.627,0.037c0.203-2.269,0.136-4.561-0.201-6.814	c-0.486,0.09-1.013-0.229-1.159-0.701c-0.059-0.19-0.067-0.407-0.201-0.554c-0.134-0.147-0.35-0.176-0.547-0.197	c-3.113-0.321-5.507-0.286-8.635-0.181c-0.72,0.024-2.092,0.034-2.807,0.127c-0.603,0.079,0.021,0.973-0.397,1.544	C25.036,8.88,24.21,8.719,23.957,9.1c-0.253,0.381-0.266,0.867-0.271,1.324c-0.028,2.797-0.056,5.595-0.085,8.392	c-0.417,0.179-0.889,0.229-1.335,0.14c-0.161,0.512-0.245,0.694-0.115,1.215c-0.882-0.05-1.695-0.018-2.576-0.068	c-0.112,0.567-0.066,1.481-0.829,1.456c-1.001-0.032-1.182,0.103-1.263,0.879c-0.029,0.279-0.019,0.574-0.145,0.825	c-0.239,0.473-0.949,0.32-1.695,0.275c0,0.723-0.038,0.842-0.226,1.469c-0.136,0.452-1.774,0.116-2.418-0.006	c-0.165-0.031-0.344-0.071-0.45-0.201c-0.218-0.267,0.011-0.729-0.217-0.986c-0.166-0.187-0.451-0.237-0.702-0.228	c-0.736,0.024-0.444-0.833-0.466-1.356c-0.022-0.507-0.605-0.285-1.601-0.395c-0.037-0.959-0.185-1.593-0.332-2.913	c-0.037-0.332-1.77-0.406-1.881,0.111c-0.126,0.59-0.025,1.311,0.009,1.913c0.122,2.137,0.244,4.273,0.366,6.41	c0.022,0.393,0.106,0.873,0.479,1.002c0.201,0.07,0.865-0.007,1.044,0.109c0.218,0.14,0.078,0.757,0.045,1.181	c-0.015,0.197,0.893,0.182,1.68,0.291c0.087,0.405,0.1,1.128-0.015,1.526c0.768,0.142,1.742-0.045,1.696,0.394	c-0.017,0.168-0.005,0.88,0.01,1.048c0.034,0.392,1.439-0.043,1.439,0.493c0,0.22,0.033,0.853,0.025,1.073	c-0.009,0.255,0.812,0.265,1.409,0.131c0.27,2.202,0.54,4.404,0.809,6.606c0.932,0.159,2.554,0.077,3.499,0.048	c0.11-0.565,0.124-0.827,0.055-1.419c-0.045-0.384-1.16-0.09-1.997-0.207c0.006-1.994-0.028-2.039,1.003-2.056	c0.33-0.005-0.123-1.299,0.205-1.336c0.74-0.082,0.452,0,1.171-0.062c-0.033-0.406-0.249-1.15-0.041-1.5	c0.208-0.35,1.396-0.291,1.675,0.005c0.137,0.777,0.018,1.36,0.427,1.348c0.317-0.009,0.517,0.075,0.789,0.1	c0.1,0.009,0.087,0.417,0.101,0.581c0.112,1.328,0.223,2.656,0.335,3.983c1.296-0.017,2.266-0.112,3.359,0.078	c0.267-0.537,0.228-1.065,0.115-1.654c-0.717-0.09-1.053-0.102-1.77-0.191c-0.028-0.478-0.001-1.099,0.011-1.585"/><path fill="#d6e5e5" d="M27.873,9.228c0.061,0.634,0.016,1.279-0.133,1.898c0.587,0.049,1.561,0.109,2.148,0.158	c0.053,0.004,0.114,0.007,0.153-0.03c0.054-0.05,0.014-0.137,0.024-0.209c0.115-0.806,0.08-0.992,0.095-1.779	c-0.701,0.099-1.552-0.023-2.259-0.04"/><path fill="#010101" d="M17.93,41.806c-0.608,0-1.206-0.024-1.666-0.103c-0.218-0.037-0.385-0.213-0.412-0.433l-0.748-6.098	c-0.409,0.035-0.952,0.027-1.244-0.216c-0.153-0.127-0.237-0.31-0.23-0.502c0.004-0.12-0.006-0.375-0.014-0.607	c-0.003-0.085-0.006-0.166-0.008-0.239c-0.096-0.008-0.218-0.01-0.303-0.012c-0.379-0.006-1.083-0.018-1.138-0.646	c-0.012-0.138-0.023-0.588-0.019-0.896c-0.123-0.013-0.285-0.019-0.408-0.022c-0.282-0.011-0.59-0.024-0.873-0.077	c-0.139-0.025-0.26-0.108-0.334-0.229c-0.074-0.119-0.094-0.265-0.055-0.4c0.059-0.206,0.077-0.598,0.052-0.936	c-0.121-0.012-0.24-0.022-0.355-0.032c-0.767-0.065-1.429-0.121-1.381-0.75c0.007-0.1,0.021-0.209,0.034-0.321	c0.014-0.11,0.033-0.271,0.038-0.393c-0.074,0-0.158-0.001-0.222-0.002c-0.237-0.004-0.441-0.007-0.605-0.064	c-0.746-0.258-0.796-1.151-0.813-1.445l-0.393-6.792c-0.041-0.528-0.086-1.127,0.029-1.663c0.166-0.778,1.308-0.781,1.656-0.765	c0.941,0.047,1.178,0.409,1.21,0.704c0.055,0.497,0.111,0.896,0.161,1.253c0.062,0.449,0.116,0.828,0.148,1.247	c0.12,0.005,0.23,0.006,0.332,0.006c0.471,0.005,1.259,0.012,1.294,0.836c0.006,0.14-0.006,0.3-0.02,0.464	c-0.01,0.119-0.025,0.302-0.016,0.41c0.001,0,0.002,0,0.004,0c0.479,0,0.844,0.14,1.074,0.399c0.244,0.274,0.241,0.61,0.239,0.832	c0,0.066-0.001,0.167,0.009,0.198c-0.007-0.031,0.103-0.01,0.139-0.002l0.101,0.02c1.111,0.21,1.588,0.229,1.786,0.196	c0.145-0.487,0.164-0.599,0.164-1.188c0-0.138,0.057-0.27,0.157-0.364c0.101-0.094,0.233-0.142,0.373-0.135l0.366,0.027	c0.261,0.023,0.804,0.067,0.852-0.027c0.053-0.106,0.065-0.272,0.078-0.449l0.017-0.203c0.122-1.172,0.668-1.351,1.776-1.327	c0.118-0.001,0.179-0.028,0.267-0.691c0.017-0.127,0.033-0.25,0.055-0.361c0.049-0.244,0.271-0.431,0.519-0.402	c0.433,0.024,0.849,0.028,1.265,0.033c0.239,0.002,0.479,0.005,0.721,0.011c0.012-0.251,0.079-0.463,0.163-0.726l0.037-0.117	c0.077-0.243,0.328-0.392,0.575-0.34c0.244,0.049,0.499,0.042,0.74-0.012l0.082-8.035c0.004-0.455,0.01-1.078,0.354-1.596	c0.244-0.367,0.662-0.449,0.999-0.515c0.121-0.024,0.324-0.063,0.374-0.104c0.073-0.103,0.051-0.326,0.03-0.543	c-0.028-0.297-0.104-1.085,0.695-1.19c0.573-0.074,1.509-0.097,2.261-0.114l0.593-0.017c2.963-0.099,5.484-0.148,8.704,0.185	c0.208,0.021,0.596,0.062,0.865,0.356c0.185,0.204,0.238,0.441,0.277,0.615c0.01,0.043,0.019,0.087,0.032,0.129	c0.071,0.23,0.354,0.395,0.591,0.357c0.134-0.026,0.271,0.006,0.381,0.084c0.11,0.079,0.184,0.199,0.204,0.333	c0.342,2.292,0.411,4.625,0.204,6.934c-0.024,0.271-0.264,0.48-0.532,0.454c-2.344-0.16-4.725-0.181-7.082-0.062	c-0.001,0.267-0.01,0.552-0.02,0.831c-0.002,0.08-0.005,0.159-0.008,0.237c1.328-0.084,2.73-0.057,4.458,0.091	c0.241,0.021,0.432,0.21,0.455,0.45c0.065,0.686,0.06,1.113-0.024,1.832c-0.115,0.967-3.05,0.775-3.385,0.753	c-0.603-0.043-1.048-0.009-1.61,0.034c-0.442,0.035-0.931,0.073-1.591,0.081l0.138,1.472c0.192,0.007,0.389,0.016,0.589,0.023	c0.958,0.04,1.95,0.082,3.033,0.035c0.149-0.001,0.267,0.044,0.364,0.137c0.098,0.093,0.155,0.221,0.157,0.355l0.007,0.402	c0.023,1.287,0.043,2.398-0.239,3.731c-0.026,0.123-0.097,0.23-0.199,0.304c-0.378,0.27-1.125,0.338-1.632,0.246	c-0.369-0.065-0.632-0.212-0.783-0.436c-0.227-0.335-0.188-0.923-0.099-1.851c0.003-0.033,0.006-0.065,0.01-0.096	c-0.178-0.015-0.355-0.043-0.523-0.069c-0.102-0.017-0.23-0.037-0.342-0.049c0.042,0.759,0.057,1.224,0.075,1.849l0.024,0.793	c0.008,0.249-0.005,0.593-0.02,0.961c-0.022,0.542-0.05,1.216,0.011,1.562c0.029,0.163-0.046,0.391-0.164,0.506	c-0.279,0.273-0.97,0.254-1.523,0.182c0,0.133,0.004,0.271,0.008,0.408c0.01,0.38,0.021,0.773-0.034,1.101	c-0.042,0.253-0.262,0.433-0.525,0.416c-0.547-0.034-0.902-0.008-1.245,0.019c-0.039,0.003-0.076,0.006-0.114,0.008	c-0.055,0.281-0.101,0.797-0.089,1.194c0.004,0.133-0.044,0.262-0.136,0.358c-0.091,0.098-0.218,0.153-0.351,0.157l-0.907,0.024	c0.05,0.654-0.003,1.351-0.055,2.028c-0.036,0.476-0.073,0.957-0.075,1.429c0.009,0.039,0.013,0.078,0.012,0.119l-0.008,0.288	c-0.008,0.271-0.017,0.563-0.016,0.839c0.163,0.018,0.309,0.031,0.455,0.046c0.264,0.025,0.529,0.051,0.889,0.096	c0.215,0.026,0.389,0.188,0.43,0.401c0.119,0.619,0.182,1.287-0.159,1.973c-0.099,0.198-0.312,0.313-0.533,0.27	c-0.788-0.137-1.534-0.114-2.4-0.09c-0.275,0.008-0.562,0.016-0.867,0.02c-0.002,0-0.004,0-0.006,0c-0.26,0-0.477-0.199-0.498-0.458	l-0.344-4.142c0-0.008,0-0.016,0-0.023c-0.13-0.026-0.236-0.057-0.369-0.041c-0.773,0.024-0.826-0.733-0.865-1.184	c-0.01-0.11-0.02-0.231-0.036-0.361c-0.229-0.062-0.705-0.072-0.841,0.01c-0.002,0.058,0.072,0.51,0.108,0.727	c0.025,0.154,0.048,0.297,0.058,0.414c0.022,0.274-0.182,0.516-0.456,0.539c-0.373,0.032-0.5,0.027-0.613,0.025	c-0.061-0.003-0.116-0.002-0.219,0.004c0.004,0.06,0.01,0.12,0.015,0.168c0.036,0.386,0.07,0.75-0.156,1.003	c-0.093,0.104-0.297,0.196-0.437,0.199c-0.146,0.002-0.417,0.007-0.484,0.035c-0.02,0.073-0.024,0.507-0.025,1.05	c0.167,0,0.337-0.008,0.497-0.015c0.629-0.03,1.414-0.065,1.496,0.633c0.074,0.636,0.062,0.944-0.061,1.573	c-0.045,0.229-0.242,0.396-0.475,0.404l-0.361,0.012C19.03,41.786,18.476,41.806,17.93,41.806z M16.798,40.764	c0.771,0.07,1.855,0.036,2.625,0.008c0.028-0.217,0.029-0.395,0.008-0.637c-0.14-0.005-0.336,0.005-0.481,0.012	c-0.348,0.016-0.743,0.034-1.113-0.019c-0.248-0.034-0.432-0.247-0.431-0.497l0-0.181c0.004-1.639,0.005-2.238,1.119-2.353	c-0.003-0.047-0.008-0.092-0.011-0.129c-0.038-0.402-0.108-1.15,0.543-1.225c0.403-0.044,0.531-0.045,0.652-0.041	c-0.068-0.441-0.112-0.914,0.104-1.278c0.157-0.264,0.461-0.422,0.905-0.471c0.375-0.04,1.187-0.014,1.564,0.388	c0.067,0.071,0.112,0.16,0.128,0.256c0.043,0.243,0.063,0.469,0.08,0.666c0.007,0.086,0.017,0.189,0.027,0.272	c0.162,0.01,0.295,0.036,0.417,0.06c0.079,0.016,0.157,0.031,0.244,0.039c0.517,0.046,0.538,0.618,0.549,0.926l0.005,0.111	l0.296,3.517c0.131-0.004,0.26-0.007,0.385-0.011c0.772-0.022,1.456-0.042,2.182,0.044c0.043-0.202,0.042-0.414,0.014-0.648	c-0.178-0.02-0.334-0.035-0.49-0.05c-0.271-0.026-0.54-0.053-0.909-0.099c-0.239-0.03-0.423-0.227-0.437-0.467	c-0.023-0.401-0.01-0.9,0.003-1.343l0.004-0.179c-0.005-0.029-0.008-0.059-0.008-0.089c-0.004-0.539,0.038-1.087,0.078-1.616	c0.065-0.854,0.127-1.661-0.006-2.341c-0.028-0.145,0.009-0.293,0.101-0.408c0.092-0.114,0.229-0.184,0.376-0.188l0.973-0.026	c0.021-0.851,0.189-1.682,0.757-1.705c0.124-0.005,0.245-0.014,0.371-0.023c0.253-0.02,0.527-0.042,0.889-0.038	c0.001-0.151-0.003-0.313-0.007-0.474c-0.01-0.38-0.021-0.773,0.034-1.101c0.022-0.134,0.098-0.252,0.21-0.329	c0.112-0.076,0.251-0.105,0.382-0.078c0.38,0.077,0.765,0.112,1.022,0.117c-0.019-0.398,0-0.872,0.02-1.335	c0.014-0.34,0.027-0.657,0.02-0.887l-0.025-0.797c-0.021-0.72-0.037-1.225-0.098-2.23c-0.007-0.116,0.027-0.231,0.095-0.325	c0.32-0.438,0.907-0.343,1.426-0.262c0.26,0.042,0.584,0.094,0.747,0.052c0.159-0.039,0.336,0.003,0.459,0.109	c0.232,0.201,0.21,0.425,0.146,1.088c-0.03,0.312-0.09,0.933-0.057,1.18c0.176,0.066,0.596,0.065,0.845,0.006	c0.201-1.085,0.19-2.056,0.17-3.156c-0.937,0.021-1.814-0.018-2.604-0.051c-0.352-0.015-0.691-0.028-1.018-0.037	c-0.253-0.007-0.462-0.202-0.485-0.455l-0.23-2.457c-0.013-0.141,0.035-0.28,0.131-0.385c0.096-0.104,0.236-0.14,0.374-0.16	c0.909,0.007,1.519-0.035,2.055-0.078c0.58-0.045,1.082-0.085,1.762-0.035c0.626,0.049,1.868-0.013,2.345-0.117	c0.035-0.358,0.043-0.636,0.027-0.958c-1.71-0.128-3.086-0.134-4.415-0.014c-0.141,0.013-0.278-0.033-0.382-0.129	c-0.104-0.095-0.163-0.229-0.163-0.369c0-0.251,0.009-0.529,0.019-0.812c0.015-0.433,0.031-0.877,0.009-1.24	c-0.008-0.133,0.037-0.263,0.125-0.362c0.088-0.1,0.212-0.159,0.345-0.167c2.393-0.139,4.812-0.137,7.197,0.006	c0.14-1.932,0.08-3.876-0.177-5.794c-0.546-0.102-1.035-0.503-1.202-1.044c-0.02-0.066-0.036-0.136-0.052-0.205	c-0.013-0.058-0.033-0.145-0.047-0.169c-0.022-0.006-0.173-0.021-0.223-0.027c-3.157-0.325-5.644-0.277-8.567-0.179l-0.603,0.016	c-0.625,0.016-1.458,0.035-1.996,0.089c0.003,0.042,0.007,0.085,0.011,0.12c0.032,0.327,0.079,0.82-0.229,1.242	c-0.249,0.339-0.653,0.418-0.978,0.482c-0.12,0.023-0.321,0.062-0.372,0.102c-0.153,0.235-0.169,0.594-0.173,1.037l-0.085,8.392	c-0.002,0.198-0.121,0.376-0.302,0.454c-0.369,0.159-0.776,0.238-1.176,0.223c-0.051,0.194-0.048,0.306,0.014,0.553	c0.039,0.154,0.002,0.317-0.1,0.439c-0.101,0.122-0.242,0.202-0.414,0.181c-0.433-0.024-0.849-0.028-1.265-0.033	c-0.283-0.003-0.566-0.006-0.854-0.015c-0.079,0.547-0.277,1.45-1.274,1.438c-0.519-0.019-0.644,0.026-0.673,0.046	c-0.005,0.009-0.044,0.08-0.076,0.385l-0.014,0.171c-0.018,0.255-0.039,0.543-0.183,0.827c-0.322,0.639-1.036,0.639-1.654,0.589	c-0.024,0.361-0.086,0.581-0.227,1.051c-0.247,0.819-1.458,0.658-2.896,0.385l-0.1-0.02c-0.182-0.034-0.518-0.098-0.745-0.376	c-0.222-0.272-0.219-0.597-0.217-0.811c0-0.065,0.001-0.164-0.008-0.195c0,0.015-0.086-0.026-0.251-0.026	c-0.027-0.001-0.056,0-0.083,0.001c-0.366,0-0.586-0.148-0.708-0.276c-0.321-0.337-0.28-0.827-0.247-1.221	c0.006-0.071,0.013-0.142,0.016-0.208c-0.088-0.006-0.203-0.007-0.303-0.008c-0.239-0.002-0.524-0.005-0.852-0.041	c-0.246-0.027-0.435-0.23-0.444-0.478c-0.022-0.568-0.085-1.021-0.165-1.596c-0.043-0.312-0.091-0.654-0.14-1.064	c-0.257-0.056-0.74-0.047-0.937,0.035c-0.062,0.379-0.026,0.839,0.008,1.284l0.394,6.812c0.028,0.496,0.142,0.558,0.143,0.558	c0.055,0.01,0.171,0.007,0.293,0.009c0.342,0.006,0.637,0.011,0.858,0.152c0.409,0.264,0.37,0.791,0.313,1.277	c0.135,0.015,0.295,0.028,0.429,0.04c0.25,0.021,0.523,0.045,0.783,0.081c0.208,0.029,0.375,0.185,0.419,0.391	c0.066,0.309,0.097,0.769,0.069,1.188c0.083,0.004,0.166,0.007,0.247,0.01c0.508,0.02,0.947,0.036,1.209,0.338	c0.127,0.146,0.186,0.338,0.166,0.539c-0.009,0.084-0.007,0.426-0.001,0.684c0.059,0.003,0.12,0.004,0.17,0.005	c0.383,0.006,1.282,0.021,1.282,0.802c0,0.088,0.006,0.245,0.012,0.413c0.004,0.125,0.008,0.255,0.011,0.372	c0.188,0.007,0.492,0.001,0.802-0.069c0.138-0.029,0.283-0.002,0.397,0.08c0.115,0.081,0.191,0.207,0.208,0.348L16.798,40.764z M23.088,36.631c0.001,0,0.002,0,0.002,0C23.09,36.631,23.089,36.631,23.088,36.631z M14.63,34.488	C14.629,34.488,14.629,34.489,14.63,34.488C14.629,34.489,14.629,34.488,14.63,34.488z M27.095,32.063	C27.095,32.063,27.094,32.063,27.095,32.063C27.094,32.063,27.095,32.063,27.095,32.063z"/><path fill="#010101" d="M29.935,11.787c-0.04,0-0.071-0.003-0.092-0.005c-0.277-0.022-0.648-0.049-1.023-0.075	c-0.406-0.028-0.815-0.058-1.121-0.083c-0.146-0.012-0.278-0.087-0.364-0.205s-0.115-0.268-0.081-0.41	c0.137-0.567,0.177-1.15,0.122-1.733c-0.026-0.274,0.175-0.52,0.45-0.546c0.025-0.002,0.051-0.003,0.077-0.003	c0.004,0,0.008,0,0.012,0c0.228,0.006,0.471,0.021,0.719,0.038c0.504,0.032,1.028,0.067,1.459,0.007	c0.148-0.017,0.292,0.023,0.401,0.121c0.11,0.097,0.171,0.237,0.168,0.384L30.656,9.76c-0.002,0.431-0.003,0.715-0.095,1.355	c0.012,0.047,0.036,0.303-0.176,0.503C30.227,11.763,30.049,11.787,29.935,11.787z M28.336,10.67	c0.178,0.014,0.366,0.026,0.554,0.04c0.246,0.017,0.49,0.034,0.709,0.051c0.051-0.405,0.054-0.625,0.056-0.957	c-0.363,0.005-0.729-0.019-1.089-0.042c-0.056-0.003-0.111-0.007-0.167-0.011C28.401,10.059,28.38,10.366,28.336,10.67z"/><path fill="#010101" d="M37.241,44.813c-1.074,0-2.173-0.065-3.231-0.128c-0.764-0.046-1.5-0.09-2.176-0.104	c-0.775-0.017-1.445-0.021-2.084-0.025c-1.183-0.008-2.299-0.015-3.764-0.099c-1.45-0.082-2.635-0.017-4.008,0.059	c-1.143,0.063-2.439,0.135-4.143,0.137c-2.225,0.014-2.894-0.036-3.615-0.077c-0.731-0.04-1.486-0.083-4.019-0.083	c-3.713,0.17-5.897-1.645-6.506-5.421c-0.349-2.169-0.357-3.78-0.341-7.22c0.004-0.95-0.061-2.543-0.136-4.388	c-0.136-3.336-0.305-7.488-0.203-10.802c0.002-0.051-0.004-0.168-0.012-0.34C2.768,11.067,3.541,7.386,5.3,5.38	c1.702-1.939,7.755-2.118,7.815-2.119c0.612-0.01,1.584-0.068,2.592-0.13c1.252-0.075,2.558-0.169,3.317-0.149	c0.854,0.005,1.745,0.029,2.637,0.054c0.885,0.024,1.77,0.049,2.616,0.053c3.39,0.017,6.129-0.023,9.299-0.069l3.01-0.042	c3.675-0.062,5.7,0.593,6.994,2.204c1.22,1.52,1.284,6.569,1.123,10.538c-0.105,2.585,0.035,3.984,0.169,5.339	c0.162,1.622,0.314,3.154,0.076,6.451c-0.08,1.101,0.015,2.617,0.105,4.084c0.083,1.352,0.17,2.748,0.118,3.812	c-0.016,0.317-0.026,0.653-0.038,1c-0.065,2.054-0.146,4.609-1.41,6.245C42.352,44.423,39.871,44.813,37.241,44.813z M24.618,43.419	c0.455,0,0.924,0.012,1.426,0.041c1.439,0.082,2.494,0.089,3.714,0.097c0.643,0.005,1.318,0.009,2.098,0.025	c0.688,0.015,1.437,0.059,2.214,0.104c3.401,0.204,7.255,0.431,8.862-1.648c1.066-1.38,1.142-3.756,1.202-5.665	c0.011-0.354,0.022-0.695,0.038-1.018c0.05-1.008-0.035-2.377-0.117-3.7c-0.093-1.5-0.188-3.051-0.104-4.219	c0.232-3.211,0.083-4.701-0.074-6.279c-0.139-1.389-0.282-2.824-0.174-5.479c0.211-5.212-0.126-8.902-0.904-9.872	c-1.077-1.341-2.857-1.882-6.201-1.829L33.59,4.019c-3.175,0.047-5.919,0.088-9.318,0.069c-0.854-0.005-1.746-0.029-2.638-0.054	c-0.884-0.024-1.769-0.049-2.615-0.053c-0.747,0.013-2.016,0.073-3.252,0.147c-1.025,0.062-2.013,0.121-2.636,0.132	C11.637,4.283,7.186,4.748,6.052,6.04c-1.089,1.24-2.328,4.024-2.049,10.238c0.009,0.211,0.015,0.354,0.013,0.416	c-0.102,3.277,0.066,7.41,0.202,10.729c0.076,1.857,0.141,3.461,0.137,4.433c-0.017,3.613,0.006,5.057,0.329,7.058	c0.521,3.238,2.329,4.717,5.481,4.58l0.025-0.001c2.57,0,3.341,0.043,4.087,0.085c0.706,0.04,1.377,0.08,3.558,0.075	c1.676-0.002,2.958-0.072,4.088-0.135C22.858,43.467,23.708,43.419,24.618,43.419z"/></svg>