<svg id="visual" viewBox="0 0 900 600" width="900" height="600" xmlns="http://www.w3.org/2000/svg" xmlns:xlink="http://www.w3.org/1999/xlink" version="1.1"><rect x="0" y="0" width="900" height="600" fill="#001220"></rect><path d="M0 475L15 461C30 447 60 419 90 423.3C120 427.7 150 464.3 180 442.7C210 421 240 341 270 332C300 323 330 385 360 396.5C390 408 420 369 450 341.5C480 314 510 298 540 318.8C570 339.7 600 397.3 630 406.2C660 415 690 375 720 381C750 387 780 439 810 438.2C840 437.3 870 383.7 885 356.8L900 330L900 0L885 0C870 0 840 0 810 0C780 0 750 0 720 0C690 0 660 0 630 0C600 0 570 0 540 0C510 0 480 0 450 0C420 0 390 0 360 0C330 0 300 0 270 0C240 0 210 0 180 0C150 0 120 0 90 0C60 0 30 0 15 0L0 0Z" fill="#ff6f61"></path><path d="M0 288L15 280.5C30 273 60 258 90 249.8C120 241.7 150 240.3 180 251.3C210 262.3 240 285.7 270 295C300 304.3 330 299.7 360 308.8C390 318 420 341 450 342.2C480 343.3 510 322.7 540 319.3C570 316 600 330 630 312C660 294 690 244 720 238.3C750 232.7 780 271.3 810 291.7C840 312 870 314 885 315L900 316L900 0L885 0C870 0 840 0 810 0C780 0 750 0 720 0C690 0 660 0 630 0C600 0 570 0 540 0C510 0 480 0 450 0C420 0 390 0 360 0C330 0 300 0 270 0C240 0 210 0 180 0C150 0 120 0 90 0C60 0 30 0 15 0L0 0Z" fill="#f66062"></path><path d="M0 171L15 166.3C30 161.7 60 152.3 90 166C120 179.7 150 216.3 180 236C210 255.7 240 258.3 270 243.3C300 228.3 330 195.7 360 199.8C390 204 420 245 450 253.3C480 261.7 510 237.3 540 227.3C570 217.3 600 221.7 630 243.2C660 264.7 690 303.3 720 324.7C750 346 780 350 810 346.5C840 343 870 332 885 326.5L900 321L900 0L885 0C870 0 840 0 810 0C780 0 750 0 720 0C690 0 660 0 630 0C600 0 570 0 540 0C510 0 480 0 450 0C420 0 390 0 360 0C330 0 300 0 270 0C240 0 210 0 180 0C150 0 120 0 90 0C60 0 30 0 15 0L0 0Z" fill="#ec5163"></path><path d="M0 142L15 159.5C30 177 60 212 90 207C120 202 150 157 180 137C210 117 240 122 270 124.3C300 126.7 330 126.3 360 123.3C390 120.3 420 114.7 450 129.3C480 144 510 179 540 195.5C570 212 600 210 630 218.7C660 227.3 690 246.7 720 256.2C750 265.7 780 265.3 810 264.3C840 263.3 870 261.7 885 260.8L900 260L900 0L885 0C870 0 840 0 810 0C780 0 750 0 720 0C690 0 660 0 630 0C600 0 570 0 540 0C510 0 480 0 450 0C420 0 390 0 360 0C330 0 300 0 270 0C240 0 210 0 180 0C150 0 120 0 90 0C60 0 30 0 15 0L0 0Z" fill="#e04265"></path><path d="M0 81L15 89.2C30 97.3 60 113.7 90 133.3C120 153 150 176 180 182.3C210 188.7 240 178.3 270 167.3C300 156.3 330 144.7 360 147.8C390 151 420 169 450 172.3C480 175.7 510 164.3 540 151.7C570 139 600 125 630 130.7C660 136.3 690 161.7 720 159.3C750 157 780 127 810 121.2C840 115.3 870 133.7 885 142.8L900 152L900 0L885 0C870 0 840 0 810 0C780 0 750 0 720 0C690 0 660 0 630 0C600 0 570 0 540 0C510 0 480 0 450 0C420 0 390 0 360 0C330 0 300 0 270 0C240 0 210 0 180 0C150 0 120 0 90 0C60 0 30 0 15 0L0 0Z" fill="#d43266"></path><path d="M0 91L15 95.8C30 100.7 60 110.3 90 103.8C120 97.3 150 74.7 180 57.3C210 40 240 28 270 42C300 56 330 96 360 99.7C390 103.3 420 70.7 450 61C480 51.3 510 64.7 540 61.3C570 58 600 38 630 47.7C660 57.3 690 96.7 720 103.5C750 110.3 780 84.7 810 84.3C840 84 870 109 885 121.5L900 134L900 0L885 0C870 0 840 0 810 0C780 0 750 0 720 0C690 0 660 0 630 0C600 0 570 0 540 0C510 0 480 0 450 0C420 0 390 0 360 0C330 0 300 0 270 0C240 0 210 0 180 0C150 0 120 0 90 0C60 0 30 0 15 0L0 0Z" fill="#c62368"></path></svg>